<svg width="252" height="76" viewBox="0 0 252 76" fill="none" xmlns="http://www.w3.org/2000/svg">
<path d="M109.346 57.4326C97.1881 57.4326 89.5825 49.4662 89.5825 36.6978V36.6423C89.5825 23.9016 97.2436 15.9352 109.346 15.9352C121.531 15.9352 129.137 23.9016 129.137 36.6423V36.6978C129.137 43.5817 126.916 49.1054 122.947 52.6861L128.138 60.0696H118.922L116.341 56.4056C114.231 57.0718 111.9 57.4326 109.346 57.4326ZM109.346 48.9944C109.957 48.9944 110.512 48.9388 111.067 48.8556L106.126 41.7774H115.341L117.118 44.3311C118.173 42.3326 118.783 39.7234 118.783 36.6978V36.6423C118.783 29.0645 115.092 24.3735 109.346 24.3735C103.656 24.3735 99.9638 29.0367 99.9638 36.6423V36.6978C99.9638 44.3033 103.628 48.9944 109.346 48.9944ZM143.71 57.3494C137.076 57.3494 133.301 53.1025 133.301 45.941V26.483H143.154V43.8315C143.154 47.3012 144.764 49.3552 148.012 49.3552C151.121 49.3552 153.092 46.9958 153.092 43.6372V26.483H162.918V56.7109H153.092V51.3815H152.897C151.371 55.1843 148.29 57.3494 143.71 57.3494ZM182.126 57.3494C172.577 57.3494 166.776 51.3815 166.776 41.6109V41.5831C166.776 31.868 172.605 25.8446 181.793 25.8446C190.925 25.8446 196.726 31.8125 196.726 40.9724V43.8592H176.408C176.519 47.9396 178.74 50.3545 182.32 50.3545C185.485 50.3545 187.206 48.5502 187.65 47.3012L187.677 47.1624H196.56L196.477 47.4955C195.561 51.6868 191.758 57.3494 182.126 57.3494ZM182.015 32.8395C179.128 32.8395 177.046 34.727 176.547 38.0579H187.455C186.956 34.6715 184.902 32.8395 182.015 32.8395ZM213.853 57.3494C204.859 57.3494 200.03 53.38 199.363 47.4955L199.336 47.2456H208.884L208.94 47.4677C209.412 49.5218 210.966 50.7153 213.853 50.7153C216.462 50.7153 218.044 49.7716 218.044 48.2171V48.1894C218.044 46.8293 217.073 46.0798 214.38 45.5247L209.051 44.4699C203.138 43.3318 200.057 40.2508 200.057 35.643V35.6153C200.057 29.5919 205.22 25.8446 213.492 25.8446C222.236 25.8446 226.871 30.3136 226.954 35.7263L226.982 35.9483H217.989L217.961 35.7263C217.739 33.9498 216.212 32.4787 213.492 32.4787C211.077 32.4787 209.523 33.4779 209.523 35.0601V35.0879C209.523 36.3925 210.439 37.1697 213.298 37.7526L218.627 38.8074C225.039 40.0842 227.815 42.5824 227.815 47.1069V47.1346C227.815 53.38 222.152 57.3494 213.853 57.3494ZM244.442 57.3494C237.114 57.3494 233.783 54.7124 233.783 47.8841V33.7H229.675V26.483H233.783V19.5159H243.637V26.483H249.049V33.7H243.637V46.5517C243.637 49.1609 244.802 50.1324 247.217 50.1324C247.994 50.1324 248.494 50.0769 249.049 49.9936V56.9885C247.967 57.1828 246.496 57.3494 244.442 57.3494Z" fill="black"/>
<path d="M3.75363 61V15.9947H23.2466C34.1314 15.9947 40.2756 21.3904 40.2756 30.9341V30.9965C40.2756 36.7664 37.2815 41.7566 32.6032 43.7838L41.6167 61H28.767L21.0322 45.4992H15.1999V61H3.75363ZM15.1999 37.203H21.9678C26.0224 37.203 28.611 34.7703 28.611 30.9653V30.9029C28.611 27.1291 25.9288 24.634 21.9055 24.634H15.1999V37.203Z" fill="#8A1B22"/>
<path d="M82.4609 56.9082H51.8786" stroke="black" stroke-width="9.48439"/>
</svg>
