<svg width="26" height="32" viewBox="0 0 26 32" fill="none" xmlns="http://www.w3.org/2000/svg">
<path fill-rule="evenodd" clip-rule="evenodd" d="M22.337 18.0526C22.1173 17.7265 22 17.3422 22 16.949V13.674C22 8.90878 19.2024 4.9117 15.4011 3.6997C15.1666 3.62495 15 3.41163 15 3.16556V3C15 1.89543 14.1046 1 13 1V1C11.8954 1 11 1.89543 11 3V3.16556C11 3.41163 10.8334 3.62495 10.5989 3.6997C6.79758 4.9117 4 8.90878 4 13.674V16.949C4 17.3422 3.88266 17.7265 3.66301 18.0526L1.33699 21.5063C1.11733 21.8324 1 22.2167 1 22.6099V23.0244C1 24.1155 1.88451 25 2.9756 25H23.0244C24.1155 25 25 24.1155 25 23.0244V22.6099C25 22.2167 24.8827 21.8324 24.663 21.5063L22.337 18.0526Z" stroke="black" stroke-width="1.9756" stroke-linejoin="round"/>
<path fill-rule="evenodd" clip-rule="evenodd" d="M16.7329 27.5C16.4049 29.3531 14.7968 30.7617 12.8508 30.7617C10.9068 30.7617 9.2967 29.3531 8.96875 27.5H16.7329Z" stroke="black" stroke-width="1.9756" stroke-linejoin="round"/>
</svg>
