<svg width="17" height="17" viewBox="0 0 17 17" fill="none" xmlns="http://www.w3.org/2000/svg">
<path fill-rule="evenodd" clip-rule="evenodd" d="M0.91505 12.5171C0.859324 12.5728 0.821008 12.6435 0.804773 12.7206L0.00701408 16.51C-0.053435 16.7971 0.20112 17.0517 0.488253 16.9912L4.27761 16.1935C4.35473 16.1772 4.42546 16.1389 4.48118 16.0832L13.9625 6.60184L10.3964 3.03571L0.91505 12.5171ZM16.7152 2.50341L14.49 0.278145C14.3123 0.100073 14.0711 0 13.8195 0C13.568 0 13.3268 0.100073 13.1491 0.278145L11.4088 2.01842L14.975 5.58455L16.7152 3.84428C17.0861 3.4734 17.0861 2.87429 16.7152 2.50341Z" fill="#A5A5A5"/>
</svg>
