<svg width="16" height="16" viewBox="0 0 16 16" fill="none" xmlns="http://www.w3.org/2000/svg">
<path d="M11.5344 4.46585C12.0813 5.01272 12.475 5.65335 12.7156 6.3346C12.9 6.85647 13.4719 7.12835 13.9906 6.94397C14.5094 6.7596 14.7844 6.18772 14.6 5.66897C14.2625 4.7096 13.7125 3.81272 12.95 3.05022C10.225 0.325224 5.81563 0.315849 3.08125 3.01897L1.78125 1.71897C1.56562 1.50335 1.24375 1.44085 0.9625 1.55647C0.68125 1.6721 0.5 1.9471 0.5 2.25022V6.25022C0.5 6.66585 0.834375 7.00022 1.25 7.00022H5.25C5.55312 7.00022 5.82813 6.81897 5.94375 6.53772C6.05938 6.25647 5.99688 5.9346 5.78125 5.71897L4.49687 4.4346C6.45312 2.51272 9.59375 2.5221 11.5375 4.46585H11.5344ZM15.5 9.75022C15.5 9.3346 15.1656 9.00022 14.75 9.00022H10.75C10.4469 9.00022 10.1719 9.18147 10.0563 9.46272C9.94063 9.74397 10.0031 10.0658 10.2188 10.2815L11.5031 11.5658C9.54688 13.4877 6.40625 13.4783 4.4625 11.5346C3.91562 10.9877 3.52187 10.3471 3.28125 9.66585C3.09687 9.14397 2.525 8.8721 2.00625 9.05647C1.4875 9.24085 1.2125 9.81272 1.39688 10.3315C1.73438 11.2877 2.28438 12.1846 3.05 12.9502C5.775 15.6752 10.1844 15.6846 12.9188 12.9815L14.2188 14.2815C14.4344 14.4971 14.7563 14.5596 15.0375 14.444C15.3188 14.3283 15.5 14.0533 15.5 13.7502V9.75335V9.75022Z" fill="black"/>
</svg>
